<svg width="75" height="84" viewBox="0 0 75 84" fill="none" xmlns="http://www.w3.org/2000/svg">
<path d="M52.9352 78.0269C58.0019 73.9218 61.4751 69.0356 62.9215 62.999C63.1485 62.0514 62.9075 61.6871 61.9738 61.2871C58.5252 59.8098 56.649 57.2397 56.6709 53.7756C56.692 50.4252 58.4592 47.864 61.8127 46.3936C66.483 44.3458 72.0902 46.3671 73.9587 50.7053C75.8846 55.1766 73.4348 60.1821 68.4389 61.5765C66.9324 61.9969 66.4985 62.6926 66.1923 63.9656C64.5573 70.763 60.6418 76.3596 54.7941 80.7124C48.7755 85.1924 40.4753 84.9869 34.4382 80.408C29.6154 76.7501 26.6711 71.931 24.672 66.5835C23.6436 63.8326 23.0875 60.9885 22.9014 58.0893C22.8628 57.4887 22.6287 57.1093 22.0768 56.7982C20.7477 56.049 20.0069 54.9253 19.916 53.5081C19.8716 52.8149 19.4371 52.6264 18.8483 52.4486C12.5558 50.5489 8.38291 46.5725 5.69124 41.1578C4.98567 39.7385 4.45608 38.3068 5.49576 36.8105C5.84297 36.3108 5.48181 35.8521 5.30023 35.4001C2.24176 27.7856 0.777061 19.9112 0.769336 11.8108C0.767968 10.3727 0.792845 8.9161 1.13346 7.49507C1.82309 4.61796 4.40234 2.62293 7.59228 2.53397C8.71661 2.50262 9.68809 2.32803 10.7448 1.79467C12.7828 0.765958 15.1413 0.724436 17.4368 0.850467C18.5477 0.911459 19.2598 1.58499 19.4015 2.62238C19.4886 3.26056 19.521 3.91811 19.4593 4.55736C19.3482 5.70728 18.5172 6.48446 17.263 6.51686C14.7168 6.58264 12.2263 6.45646 9.9438 5.13874C8.08385 4.06498 4.57115 5.54284 3.88774 7.5788C3.7301 8.04841 3.61319 8.54508 3.58815 9.03405C3.13674 17.8485 4.49752 26.4127 7.87364 34.6923C8.06014 35.1497 8.25054 35.5953 8.9115 35.718C10.1637 35.9503 10.8972 36.737 11.3752 37.7851C12.2796 39.7685 13.4403 41.6245 15.0913 43.1627C22.1737 49.761 31.3592 47.8788 36.3824 40.8366C37.1065 39.8215 37.69 38.7129 38.2412 37.607C38.707 36.6723 39.4094 36.0135 40.467 35.7552C41.1219 35.5954 41.414 35.248 41.6503 34.7191C43.9492 29.5745 45.2955 24.2258 45.9103 18.702C46.2532 15.6206 46.1756 12.5406 46.1009 9.45877C46.0248 6.31816 43.7646 4.57821 40.3643 4.92293C39.7634 4.98384 39.4344 5.40026 38.947 5.58757C36.7535 6.43055 34.4616 6.68665 32.1057 6.48842C31.8298 6.4652 31.539 6.33863 31.3049 6.193C29.8126 5.26478 30.1007 3.86893 30.2762 2.56119C30.431 1.40721 31.3386 0.829364 32.5473 0.824771C35.0431 0.815292 37.5596 0.818246 39.7111 2.26782C40.1571 2.56828 40.6607 2.50242 41.1532 2.50973C45.9556 2.58101 48.5456 5.09602 48.7997 9.50645C49.2612 17.5166 48.0623 25.2862 45.2686 32.8687C45.0827 33.3732 44.8864 33.876 44.6604 34.3663C44.1468 35.4805 43.613 36.5246 44.4431 37.7804C44.9221 38.505 44.5929 39.4216 44.2483 40.2149C41.6671 46.1569 37.3283 50.4685 30.546 52.459C29.6912 52.7099 29.2354 53.013 29.1316 53.8894C28.9862 55.1174 28.2497 56.1159 27.0949 56.767C26.4215 57.1468 26.2428 57.6119 26.3166 58.287C27.0134 64.6598 29.3685 70.4135 33.847 75.3938C36.8636 78.7483 40.6045 80.7559 45.4655 80.7205C48.2949 80.6999 50.7193 79.7088 52.9352 78.0269ZM62.9834 58.242C63.2904 58.357 63.5912 58.4892 63.9054 58.5842C66.4902 59.3662 69.3132 58.2888 70.5481 56.0557C71.7764 53.8346 71.0208 51.1107 68.7798 49.6812C66.3296 48.1182 62.8846 48.6666 61.1377 50.8977C59.3239 53.2141 60.0553 56.3636 62.9834 58.242Z" fill="#118CDB"/>
</svg>
